# xmcd
# 
# Track frame offsets:
#     150
#     12558
#     22765
#     32267
#     42901
#     55055
#     65126
#     73332
#     85607
#     96345
#     105301
#     110461
#     118372
#     128006
#     142120
#     154761
#     165380
#     172483
#     184108
#     187915
#     194072
#     219459
#     238365
#     242900
#     263645
#     282681
#     295672
#     306192
#     317050
#     329245
#     343552
# 
# Disc length: 4770
# 
# Revision: 1
# Processed by: cddbd v1.5.2PL0 Copyright (c) Steve Scherf et al.
# Submitted via: fre:ac v1.0.31
# 
DISCID=dd12a01f
DTITLE=The Beach Boys - 1967: Sunshine Tomorrow Disc 1
DYEAR=2017
DGENRE=Rock/Pop
TTITLE0=Wild Honey
TTITLE1=Aren't You Glad
TTITLE2=I Was Made To Love Her
TTITLE3=Country Air
TTITLE4=A Thing Or Two
TTITLE5=Darlin'
TTITLE6=I'd Love Just Once To See You
TTITLE7=Here Comes The Night
TTITLE8=Let The Wind Blow
TTITLE9=How She Boogalooed It
TTITLE10=Mama Says
TTITLE11=Lonely Days [Alternate Version]
TTITLE12=Cool Cool Water [Alternate Early Version]
TTITLE13=Time To Get Alone [Alternate Early Version]
TTITLE14=Can't Wait Too Long [Alternate Early Version]
TTITLE15=I'd Love Just Once To See You [Alternate Version]
TTITLE16=I Was Made To Love Her [Vocal Insert Session]
TTITLE17=I Was Made To Love Her [Long Version]
TTITLE18=Hide Go Seek
TTITLE19=Honey Get Home
TTITLE20=Wild Honey [Session Highlights]
TTITLE21=Aren't You Glad [Session Highlights]
TTITLE22=A Thing Or Two [Track and Backing Vocals]
TTITLE23=Darlin' [Session Highlights]
TTITLE24=Let The Wind Blow [Session Highlights]
TTITLE25=Wild Honey [Live]
TTITLE26=Country Air [Live]
TTITLE27=Darlin' [Live]
TTITLE28=How She Boogalooed It [Live]
TTITLE29=Aren't You Glad [Live]
TTITLE30=Mama Says [Session Highlights]
EXTD=
EXTT0=
EXTT1=
EXTT2=
EXTT3=
EXTT4=
EXTT5=
EXTT6=
EXTT7=
EXTT8=
EXTT9=
EXTT10=
EXTT11=
EXTT12=
EXTT13=
EXTT14=
EXTT15=
EXTT16=
EXTT17=
EXTT18=
EXTT19=
EXTT20=
EXTT21=
EXTT22=
EXTT23=
EXTT24=
EXTT25=
EXTT26=
EXTT27=
EXTT28=
EXTT29=
EXTT30=
PLAYORDER=
